<svg width="25" height="25" viewBox="0 0 25 25" fill="none" xmlns="http://www.w3.org/2000/svg">
<g id="bx:edit">
<path id="Vector" d="M7.64166 17.4829L12.1026 17.4682L21.8392 8.13275C22.2213 7.76286 22.4315 7.27162 22.4315 6.74907C22.4315 6.22652 22.2213 5.73528 21.8392 5.36538L20.236 3.81339C19.4717 3.07359 18.1384 3.07751 17.3803 3.81045L7.64166 13.1479V17.4829ZM18.8066 5.19707L20.4129 6.74613L18.7985 8.29422L17.1953 6.7432L18.8066 5.19707ZM9.66338 13.964L15.7589 8.11905L17.3621 9.67105L11.2676 15.514L9.66338 15.5189V13.964Z" fill="#EFEFEF"/>
<path id="Vector_2" d="M5.61998 21.3844H19.772C20.887 21.3844 21.7937 20.5066 21.7937 19.4272V10.9451L19.772 12.9022V19.4272H8.81228C8.78599 19.4272 8.7587 19.437 8.73242 19.437C8.69906 19.437 8.6657 19.4282 8.63133 19.4272H5.61998V5.72738H12.5413L14.5631 3.77026H5.61998C4.50501 3.77026 3.59827 4.64803 3.59827 5.72738V19.4272C3.59827 20.5066 4.50501 21.3844 5.61998 21.3844Z" fill="#EFEFEF"/>
</g>
</svg>
