<svg width="38" height="38" viewBox="0 0 38 38" fill="none" xmlns="http://www.w3.org/2000/svg">
<g id="Group">
<path id="Vector" fill-rule="evenodd" clip-rule="evenodd" d="M23.75 30.0833C23.7503 30.8822 23.4485 31.6517 22.9053 32.2375C22.3621 32.8233 21.6175 33.1821 20.8208 33.242L20.5833 33.25H17.4167C16.6178 33.2502 15.8483 32.9485 15.2625 32.4053C14.6767 31.862 14.3178 31.1175 14.2579 30.3208L14.25 30.0833H23.75ZM19 3.16663C21.8737 3.16658 24.6351 4.28271 26.7017 6.27958C28.7683 8.27645 29.9785 10.9979 30.077 13.87L30.0833 14.25V20.2096L32.9682 25.9793C33.0941 26.231 33.1571 26.5096 33.1518 26.791C33.1465 27.0724 33.0731 27.3484 32.9379 27.5952C32.8026 27.8421 32.6095 28.0525 32.3752 28.2084C32.1408 28.3643 31.8722 28.4611 31.5923 28.4905L31.4102 28.5H6.58984C6.30826 28.5 6.03087 28.4319 5.78142 28.3012C5.53197 28.1706 5.31791 27.9815 5.15758 27.75C4.99725 27.5185 4.89543 27.2517 4.86084 26.9722C4.82626 26.6928 4.85994 26.4091 4.959 26.1455L5.03184 25.9793L7.91667 20.2096V14.25C7.91667 11.3105 9.08438 8.49139 11.1629 6.41286C13.2414 4.33433 16.0605 3.16663 19 3.16663ZM19 6.33329C16.9599 6.33341 14.9987 7.12107 13.5252 8.532C12.0517 9.94294 11.1798 11.8682 11.0913 13.9064L11.0833 14.25V20.2096C11.0834 20.6023 11.0103 20.9916 10.868 21.3575L10.7493 21.6267L8.89675 25.3333H29.1048L27.2523 21.6251C27.0766 21.2741 26.9676 20.8934 26.9309 20.5025L26.9167 20.2096V14.25C26.9167 12.1503 26.0826 10.1367 24.5979 8.65203C23.1133 7.16737 21.0996 6.33329 19 6.33329Z" fill="#5C5C5C"/>
</g>
</svg>
