<svg width="24" height="24" viewBox="0 0 24 24" fill="none" xmlns="http://www.w3.org/2000/svg">
<g id="la:list-alt">
<path id="Vector" d="M7.71071 3.96069L5.24996 6.42219L4.28921 5.45994L3.20996 6.53994L4.70996 8.03994L5.24921 8.55519L5.78846 8.03994L8.78846 5.03994L7.71071 3.96069ZM11.25 5.24994V6.74994H21V5.24994H11.25ZM7.71071 9.96069L5.24996 12.4214L4.28921 11.4614L3.21071 12.5392L4.71071 14.0392L5.24996 14.5544L5.78921 14.0392L8.78921 11.0392L7.71071 9.96069ZM11.25 11.2499V12.7499H21V11.2499H11.25ZM7.71071 15.9607L5.24996 18.4222L4.28921 17.4599L3.20996 18.5399L4.70996 20.0399L5.24921 20.5552L5.78846 20.0399L8.78846 17.0399L7.71071 15.9607ZM11.25 17.2499V18.7499H21V17.2499H11.25Z" fill="#5C5C5C"/>
</g>
</svg>
