<svg width="25" height="25" viewBox="0 0 25 25" fill="none" xmlns="http://www.w3.org/2000/svg">
<g id="mingcute:delete-line">
<g id="Group">
<path id="Vector" d="M20.4137 5.72743C20.6818 5.72743 20.9389 5.83053 21.1285 6.01404C21.318 6.19756 21.4245 6.44646 21.4245 6.70599C21.4245 6.96552 21.318 7.21442 21.1285 7.39794C20.9389 7.58145 20.6818 7.68455 20.4137 7.68455H19.4028L19.3998 7.75403L18.4566 20.5448C18.4203 21.0386 18.1921 21.5007 17.8179 21.838C17.4437 22.1754 16.9513 22.363 16.44 22.363H8.2126C7.70125 22.363 7.20888 22.1754 6.83468 21.838C6.46048 21.5007 6.23224 21.0386 6.19594 20.5448L5.2528 7.75501C5.25127 7.73155 5.2506 7.70805 5.25078 7.68455H4.23992C3.97183 7.68455 3.71471 7.58145 3.52514 7.39794C3.33557 7.21442 3.22906 6.96552 3.22906 6.70599C3.22906 6.44646 3.33557 6.19756 3.52514 6.01404C3.71471 5.83053 3.97183 5.72743 4.23992 5.72743H20.4137ZM17.3781 7.68455H7.27553L8.21361 20.4058H16.44L17.3781 7.68455ZM14.3485 2.79175C14.6166 2.79175 14.8737 2.89485 15.0633 3.07836C15.2529 3.26188 15.3594 3.51078 15.3594 3.77031C15.3594 4.02984 15.2529 4.27874 15.0633 4.46226C14.8737 4.64577 14.6166 4.74887 14.3485 4.74887H10.3051C10.037 4.74887 9.77986 4.64577 9.59029 4.46226C9.40072 4.27874 9.29422 4.02984 9.29422 3.77031C9.29422 3.51078 9.40072 3.26188 9.59029 3.07836C9.77986 2.89485 10.037 2.79175 10.3051 2.79175H14.3485Z" fill="#667085"/>
</g>
</g>
</svg>
